<svg id="Layer_1" data-name="Layer 1" xmlns="http://www.w3.org/2000/svg" viewBox="0 0 28 28"><defs><style>.cls-1{fill:#fff;}.cls-2{fill:#34aadc;}</style></defs><title>AppStore</title><path class="cls-1" d="M14,27A13,13,0,1,1,27,14,13,13,0,0,1,14,27Z"/><path class="cls-2" d="M14,2A12,12,0,1,1,2,14,12,12,0,0,1,14,2m0-2A14,14,0,1,0,28,14,14,14,0,0,0,14,0Z"/><path class="cls-1" d="M14,19.5a.5.5,0,0,1-.35-.14L9.4,15.11a.51.51,0,0,1,0-.71.5.5,0,0,1,.71,0L13.5,17.8V8a.5.5,0,0,1,1,0v9.79l3.39-3.39a.51.51,0,0,1,.71,0,.51.51,0,0,1,0,.71l-4.24,4.24A.5.5,0,0,1,14,19.5Z"/><path class="cls-2" d="M14,6.5A1.5,1.5,0,0,0,12.5,8v7.38L10.82,13.7A1.5,1.5,0,1,0,8.7,15.82l4.24,4.24a1.5,1.5,0,0,0,2.12,0h0l4.24-4.24a1.5,1.5,0,0,0-2.12-2.12L15.5,15.38V8A1.5,1.5,0,0,0,14,6.5Z"/></svg>