<?xml version="1.0" encoding="UTF-8" standalone="no"?>
<!DOCTYPE svg PUBLIC "-//W3C//DTD SVG 1.1//EN" "http://www.w3.org/Graphics/SVG/1.1/DTD/svg11.dtd">
<svg width="100%" height="100%" viewBox="0 0 28 28" version="1.1" xmlns="http://www.w3.org/2000/svg" xmlns:xlink="http://www.w3.org/1999/xlink" xml:space="preserve" xmlns:serif="http://www.serif.com/" style="fill-rule:evenodd;clip-rule:evenodd;stroke-linejoin:round;stroke-miterlimit:1.41421;">
    <g transform="matrix(1,0,0,1,-381,-1553)">
        <g transform="matrix(1,0,0,1.55888,0,-324)">
            <g id="Play-Glyph" serif:id="Play Glyph">
                <g transform="matrix(1.00901,0,0,0.647266,-3.43243,199.514)">
                    <path d="M395.054,1552L395.233,1552.01L395.411,1552.01L395.589,1552.02L395.766,1552.03L395.942,1552.04L396.118,1552.06L396.293,1552.07L396.467,1552.09L396.641,1552.11L396.814,1552.13L396.987,1552.16L397.159,1552.19L397.33,1552.22L397.5,1552.25L397.67,1552.28L397.839,1552.32L398.007,1552.36L398.174,1552.39L398.341,1552.44L398.507,1552.48L398.672,1552.53L398.836,1552.58L398.999,1552.62L399.162,1552.68L399.323,1552.73L399.484,1552.79L399.644,1552.84L399.803,1552.9L399.96,1552.96L400.118,1553.03L400.274,1553.09L400.429,1553.16L400.583,1553.23L400.736,1553.3L400.888,1553.37L401.039,1553.44L401.189,1553.52L401.338,1553.6L401.486,1553.68L401.633,1553.76L401.779,1553.84L401.924,1553.92L402.067,1554.01L402.21,1554.1L402.351,1554.19L402.491,1554.28L402.63,1554.37L402.768,1554.47L402.905,1554.56L403.04,1554.66L403.174,1554.76L403.307,1554.86L403.439,1554.96L403.57,1555.07L403.699,1555.17L403.827,1555.28L403.953,1555.38L404.078,1555.5L404.202,1555.61L404.325,1555.72L404.446,1555.83L404.566,1555.95L404.684,1556.07L404.801,1556.18L404.917,1556.3L405.031,1556.42L405.144,1556.55L405.255,1556.67L405.365,1556.8L405.473,1556.92L405.58,1557.05L405.685,1557.18L405.789,1557.31L405.891,1557.44L405.992,1557.58L406.091,1557.71L406.189,1557.85L406.285,1557.98L406.379,1558.12L406.472,1558.26L406.563,1558.4L406.652,1558.54L406.74,1558.68L406.826,1558.83L406.911,1558.97L406.993,1559.12L407.074,1559.26L407.154,1559.41L407.231,1559.56L407.307,1559.71L407.381,1559.86L407.453,1560.01L407.524,1560.17L407.592,1560.32L407.659,1560.48L407.724,1560.63L407.787,1560.79L407.848,1560.95L407.907,1561.11L407.965,1561.27L408.02,1561.43L408.074,1561.59L408.126,1561.75L408.175,1561.91L408.223,1562.08L408.269,1562.24L408.313,1562.41L408.355,1562.58L408.394,1562.74L408.432,1562.91L408.468,1563.08L408.502,1563.25L408.533,1563.42L408.563,1563.59L408.59,1563.76L408.615,1563.94L408.638,1564.11L408.659,1564.28L408.678,1564.46L408.695,1564.63L408.71,1564.81L408.722,1564.98L408.732,1565.16L408.74,1565.34L408.745,1565.52L408.749,1565.7L408.75,1565.88L408.749,1566.05L408.745,1566.23L408.74,1566.41L408.732,1566.59L408.722,1566.77L408.71,1566.94L408.695,1567.12L408.678,1567.29L408.659,1567.47L408.638,1567.64L408.615,1567.81L408.59,1567.99L408.563,1568.16L408.533,1568.33L408.502,1568.5L408.468,1568.67L408.432,1568.84L408.394,1569.01L408.355,1569.17L408.313,1569.34L408.269,1569.51L408.223,1569.67L408.175,1569.84L408.126,1570L408.074,1570.16L408.02,1570.32L407.965,1570.48L407.907,1570.64L407.848,1570.8L407.787,1570.96L407.724,1571.12L407.659,1571.27L407.592,1571.43L407.524,1571.58L407.453,1571.74L407.381,1571.89L407.307,1572.04L407.231,1572.19L407.154,1572.34L407.074,1572.49L406.993,1572.63L406.911,1572.78L406.826,1572.92L406.74,1573.07L406.652,1573.21L406.563,1573.35L406.472,1573.49L406.379,1573.63L406.285,1573.77L406.189,1573.9L406.091,1574.04L405.992,1574.17L405.891,1574.31L405.789,1574.44L405.685,1574.57L405.58,1574.7L405.473,1574.83L405.365,1574.95L405.255,1575.08L405.144,1575.2L405.031,1575.33L404.917,1575.45L404.801,1575.57L404.684,1575.68L404.566,1575.8L404.446,1575.92L404.325,1576.03L404.202,1576.14L404.078,1576.26L403.953,1576.37L403.827,1576.47L403.699,1576.58L403.57,1576.68L403.439,1576.79L403.307,1576.89L403.174,1576.99L403.04,1577.09L402.905,1577.19L402.768,1577.29L402.63,1577.38L402.491,1577.47L402.351,1577.56L402.21,1577.65L402.067,1577.74L401.924,1577.83L401.779,1577.91L401.633,1577.99L401.486,1578.07L401.338,1578.15L401.189,1578.23L401.039,1578.31L400.888,1578.38L400.736,1578.45L400.583,1578.52L400.429,1578.59L400.274,1578.66L400.118,1578.72L399.96,1578.79L399.803,1578.85L399.644,1578.91L399.484,1578.97L399.323,1579.02L399.162,1579.07L398.999,1579.13L398.836,1579.17L398.672,1579.22L398.507,1579.27L398.341,1579.31L398.174,1579.36L398.007,1579.39L397.839,1579.43L397.67,1579.47L397.5,1579.5L397.33,1579.53L397.159,1579.56L396.987,1579.59L396.814,1579.62L396.641,1579.64L396.467,1579.66L396.293,1579.68L396.118,1579.69L395.942,1579.71L395.766,1579.72L395.589,1579.73L395.411,1579.74L395.233,1579.75L395.054,1579.75L394.875,1579.75L394.696,1579.75L394.517,1579.75L394.339,1579.74L394.161,1579.73L393.984,1579.72L393.808,1579.71L393.632,1579.69L393.457,1579.68L393.283,1579.66L393.109,1579.64L392.936,1579.62L392.763,1579.59L392.591,1579.56L392.42,1579.53L392.25,1579.5L392.08,1579.47L391.911,1579.43L391.743,1579.39L391.576,1579.36L391.409,1579.31L391.243,1579.27L391.078,1579.22L390.914,1579.17L390.751,1579.13L390.588,1579.07L390.427,1579.02L390.266,1578.97L390.106,1578.91L389.947,1578.85L389.79,1578.79L389.632,1578.72L389.476,1578.66L389.321,1578.59L389.167,1578.52L389.014,1578.45L388.862,1578.38L388.711,1578.31L388.561,1578.23L388.412,1578.15L388.264,1578.07L388.117,1577.99L387.971,1577.91L387.826,1577.83L387.683,1577.74L387.54,1577.65L387.399,1577.56L387.259,1577.47L387.12,1577.38L386.982,1577.29L386.845,1577.19L386.71,1577.09L386.576,1576.99L386.443,1576.89L386.311,1576.79L386.18,1576.68L386.051,1576.58L385.923,1576.47L385.797,1576.37L385.672,1576.26L385.548,1576.14L385.425,1576.03L385.304,1575.92L385.184,1575.8L385.066,1575.68L384.949,1575.57L384.833,1575.45L384.719,1575.33L384.606,1575.2L384.495,1575.08L384.385,1574.95L384.277,1574.83L384.17,1574.7L384.065,1574.57L383.961,1574.44L383.859,1574.31L383.758,1574.17L383.659,1574.04L383.561,1573.9L383.465,1573.77L383.371,1573.63L383.278,1573.49L383.187,1573.35L383.098,1573.21L383.01,1573.07L382.924,1572.92L382.839,1572.78L382.757,1572.63L382.676,1572.49L382.596,1572.34L382.519,1572.19L382.443,1572.04L382.369,1571.89L382.297,1571.74L382.226,1571.58L382.158,1571.43L382.091,1571.27L382.026,1571.12L381.963,1570.96L381.902,1570.8L381.843,1570.64L381.785,1570.48L381.73,1570.32L381.676,1570.16L381.624,1570L381.575,1569.84L381.527,1569.67L381.481,1569.51L381.437,1569.34L381.395,1569.17L381.356,1569.01L381.318,1568.84L381.282,1568.67L381.248,1568.5L381.217,1568.33L381.187,1568.16L381.16,1567.99L381.135,1567.81L381.112,1567.64L381.091,1567.47L381.072,1567.29L381.055,1567.12L381.04,1566.94L381.028,1566.77L381.018,1566.59L381.01,1566.41L381.005,1566.23L381.001,1566.05L381,1565.88L381.001,1565.7L381.005,1565.52L381.01,1565.34L381.018,1565.16L381.028,1564.98L381.04,1564.81L381.055,1564.63L381.072,1564.46L381.091,1564.28L381.112,1564.11L381.135,1563.94L381.16,1563.76L381.187,1563.59L381.217,1563.42L381.248,1563.25L381.282,1563.08L381.318,1562.91L381.356,1562.74L381.395,1562.58L381.437,1562.41L381.481,1562.24L381.527,1562.08L381.575,1561.91L381.624,1561.75L381.676,1561.59L381.73,1561.43L381.785,1561.27L381.843,1561.11L381.902,1560.95L381.963,1560.79L382.026,1560.63L382.091,1560.48L382.158,1560.32L382.226,1560.17L382.297,1560.01L382.369,1559.86L382.443,1559.71L382.519,1559.56L382.596,1559.41L382.676,1559.26L382.757,1559.12L382.839,1558.97L382.924,1558.83L383.01,1558.68L383.098,1558.54L383.187,1558.4L383.278,1558.26L383.371,1558.12L383.465,1557.98L383.561,1557.85L383.659,1557.71L383.758,1557.58L383.859,1557.44L383.961,1557.31L384.065,1557.18L384.17,1557.05L384.277,1556.92L384.385,1556.8L384.495,1556.67L384.606,1556.55L384.719,1556.42L384.833,1556.3L384.949,1556.18L385.066,1556.07L385.184,1555.95L385.304,1555.83L385.425,1555.72L385.548,1555.61L385.672,1555.5L385.797,1555.38L385.923,1555.28L386.051,1555.17L386.18,1555.07L386.311,1554.96L386.443,1554.86L386.576,1554.76L386.71,1554.66L386.845,1554.56L386.982,1554.47L387.12,1554.37L387.259,1554.28L387.399,1554.19L387.54,1554.1L387.683,1554.01L387.826,1553.92L387.971,1553.84L388.117,1553.76L388.264,1553.68L388.412,1553.6L388.561,1553.52L388.711,1553.44L388.862,1553.37L389.014,1553.3L389.167,1553.23L389.321,1553.16L389.476,1553.09L389.632,1553.03L389.79,1552.96L389.947,1552.9L390.106,1552.84L390.266,1552.79L390.427,1552.73L390.588,1552.68L390.751,1552.62L390.914,1552.58L391.078,1552.53L391.243,1552.48L391.409,1552.44L391.576,1552.39L391.743,1552.36L391.911,1552.32L392.08,1552.28L392.25,1552.25L392.42,1552.22L392.591,1552.19L392.763,1552.16L392.936,1552.13L393.109,1552.11L393.283,1552.09L393.457,1552.07L393.632,1552.06L393.808,1552.04L393.984,1552.03L394.161,1552.02L394.339,1552.01L394.517,1552.01L394.696,1552L394.875,1552L395.054,1552ZM394.721,1553.98L394.567,1553.99L394.414,1553.99L394.262,1554L394.11,1554.01L393.959,1554.02L393.808,1554.03L393.658,1554.04L393.508,1554.06L393.358,1554.08L393.21,1554.1L393.063,1554.12L392.916,1554.14L392.769,1554.17L392.623,1554.19L392.478,1554.22L392.334,1554.25L392.189,1554.29L392.046,1554.32L391.904,1554.36L391.762,1554.39L391.62,1554.43L391.48,1554.47L391.34,1554.52L391.201,1554.56L391.062,1554.61L390.925,1554.65L390.789,1554.7L390.653,1554.75L390.516,1554.81L390.383,1554.86L390.249,1554.92L390.116,1554.97L389.984,1555.03L389.854,1555.09L389.723,1555.15L389.593,1555.22L389.465,1555.28L389.337,1555.35L389.21,1555.42L389.084,1555.49L388.96,1555.56L388.835,1555.63L388.713,1555.7L388.59,1555.78L388.469,1555.86L388.349,1555.93L388.229,1556.01L388.112,1556.09L387.994,1556.18L387.878,1556.26L387.763,1556.35L387.649,1556.43L387.536,1556.52L387.424,1556.61L387.313,1556.7L387.204,1556.79L387.095,1556.88L386.988,1556.98L386.881,1557.07L386.776,1557.17L386.672,1557.27L386.569,1557.37L386.467,1557.47L386.367,1557.57L386.268,1557.67L386.17,1557.78L386.073,1557.88L385.978,1557.99L385.883,1558.1L385.79,1558.2L385.699,1558.31L385.608,1558.42L385.52,1558.54L385.432,1558.65L385.345,1558.76L385.26,1558.88L385.176,1558.99L385.094,1559.11L385.013,1559.23L384.934,1559.35L384.856,1559.47L384.779,1559.59L384.704,1559.71L384.63,1559.84L384.558,1559.96L384.487,1560.08L384.417,1560.21L384.349,1560.34L384.283,1560.47L384.218,1560.59L384.154,1560.72L384.093,1560.85L384.032,1560.98L383.974,1561.12L383.917,1561.25L383.861,1561.38L383.807,1561.52L383.754,1561.65L383.704,1561.79L383.655,1561.92L383.607,1562.06L383.561,1562.2L383.517,1562.34L383.474,1562.48L383.433,1562.62L383.394,1562.76L383.357,1562.9L383.321,1563.05L383.287,1563.19L383.255,1563.33L383.224,1563.48L383.195,1563.62L383.168,1563.77L383.143,1563.92L383.119,1564.06L383.098,1564.21L383.078,1564.36L383.06,1564.51L383.044,1564.66L383.029,1564.81L383.017,1564.96L383.006,1565.11L382.998,1565.26L382.991,1565.41L382.986,1565.57L382.983,1565.72L382.982,1565.88L382.983,1566.03L382.986,1566.18L382.991,1566.34L382.998,1566.49L383.006,1566.64L383.017,1566.79L383.029,1566.94L383.044,1567.09L383.06,1567.24L383.078,1567.39L383.098,1567.54L383.119,1567.69L383.143,1567.83L383.168,1567.98L383.195,1568.13L383.224,1568.27L383.255,1568.42L383.287,1568.56L383.321,1568.7L383.357,1568.85L383.394,1568.99L383.433,1569.13L383.474,1569.27L383.517,1569.41L383.561,1569.55L383.607,1569.69L383.655,1569.83L383.704,1569.96L383.754,1570.1L383.807,1570.23L383.861,1570.37L383.917,1570.5L383.974,1570.63L384.032,1570.77L384.093,1570.9L384.154,1571.03L384.218,1571.16L384.283,1571.29L384.349,1571.41L384.417,1571.54L384.487,1571.67L384.558,1571.79L384.63,1571.91L384.704,1572.04L384.779,1572.16L384.856,1572.28L384.934,1572.4L385.013,1572.52L385.094,1572.64L385.177,1572.76L385.26,1572.87L385.345,1572.99L385.432,1573.1L385.519,1573.21L385.609,1573.33L385.699,1573.44L385.79,1573.55L385.883,1573.65L385.977,1573.76L386.073,1573.87L386.17,1573.98L386.267,1574.08L386.367,1574.18L386.468,1574.28L386.569,1574.38L386.672,1574.48L386.776,1574.58L386.881,1574.68L386.988,1574.77L387.095,1574.87L387.203,1574.96L387.313,1575.05L387.424,1575.14L387.536,1575.23L387.649,1575.32L387.763,1575.4L387.878,1575.49L387.994,1575.57L388.111,1575.66L388.23,1575.74L388.349,1575.82L388.469,1575.89L388.59,1575.97L388.712,1576.05L388.835,1576.12L388.96,1576.19L389.084,1576.26L389.21,1576.33L389.337,1576.4L389.465,1576.47L389.594,1576.53L389.723,1576.6L389.853,1576.66L389.985,1576.72L390.117,1576.78L390.249,1576.83L390.383,1576.89L390.517,1576.94L390.652,1577L390.788,1577.05L390.925,1577.1L391.063,1577.14L391.202,1577.19L391.339,1577.23L391.48,1577.28L391.621,1577.32L391.761,1577.36L391.903,1577.39L392.047,1577.43L392.189,1577.46L392.333,1577.5L392.478,1577.53L392.623,1577.56L392.769,1577.58L392.916,1577.61L393.063,1577.63L393.21,1577.65L393.359,1577.67L393.508,1577.69L393.658,1577.71L393.808,1577.72L393.958,1577.73L394.111,1577.74L394.262,1577.75L394.414,1577.76L394.567,1577.76L394.721,1577.77L394.875,1577.77L395.029,1577.77L395.183,1577.76L395.336,1577.76L395.488,1577.75L395.639,1577.74L395.792,1577.73L395.942,1577.72L396.092,1577.71L396.242,1577.69L396.391,1577.67L396.54,1577.65L396.687,1577.63L396.834,1577.61L396.981,1577.58L397.127,1577.56L397.272,1577.53L397.417,1577.5L397.561,1577.46L397.703,1577.43L397.847,1577.39L397.989,1577.36L398.129,1577.32L398.27,1577.28L398.411,1577.23L398.548,1577.19L398.687,1577.14L398.825,1577.1L398.962,1577.05L399.098,1577L399.233,1576.94L399.367,1576.89L399.501,1576.83L399.633,1576.78L399.765,1576.72L399.897,1576.66L400.027,1576.6L400.156,1576.53L400.285,1576.47L400.413,1576.4L400.54,1576.33L400.666,1576.26L400.79,1576.19L400.915,1576.12L401.038,1576.05L401.16,1575.97L401.281,1575.89L401.401,1575.82L401.52,1575.74L401.639,1575.66L401.756,1575.57L401.872,1575.49L401.987,1575.4L402.101,1575.32L402.214,1575.23L402.326,1575.14L402.437,1575.05L402.547,1574.96L402.655,1574.87L402.762,1574.77L402.869,1574.68L402.974,1574.58L403.078,1574.48L403.181,1574.38L403.282,1574.28L403.383,1574.18L403.483,1574.08L403.58,1573.97L403.677,1573.87L403.773,1573.76L403.867,1573.65L403.96,1573.55L404.051,1573.44L404.141,1573.33L404.231,1573.21L404.318,1573.1L404.405,1572.99L404.49,1572.87L404.573,1572.76L404.656,1572.64L404.737,1572.52L404.816,1572.4L404.894,1572.28L404.971,1572.16L405.046,1572.04L405.12,1571.91L405.192,1571.79L405.263,1571.67L405.333,1571.54L405.401,1571.41L405.467,1571.29L405.532,1571.16L405.596,1571.03L405.657,1570.9L405.717,1570.77L405.776,1570.63L405.834,1570.5L405.889,1570.37L405.943,1570.23L405.996,1570.1L406.046,1569.96L406.095,1569.83L406.143,1569.69L406.189,1569.55L406.233,1569.41L406.276,1569.27L406.317,1569.13L406.356,1568.99L406.393,1568.85L406.429,1568.7L406.463,1568.56L406.495,1568.42L406.526,1568.27L406.555,1568.13L406.582,1567.98L406.607,1567.83L406.631,1567.69L406.652,1567.54L406.672,1567.39L406.69,1567.24L406.706,1567.09L406.721,1566.94L406.733,1566.79L406.744,1566.64L406.752,1566.49L406.759,1566.34L406.764,1566.18L406.767,1566.03L406.768,1565.88L406.767,1565.72L406.764,1565.57L406.759,1565.41L406.752,1565.26L406.744,1565.11L406.733,1564.96L406.721,1564.81L406.706,1564.66L406.69,1564.51L406.672,1564.36L406.652,1564.21L406.631,1564.06L406.607,1563.92L406.582,1563.77L406.555,1563.62L406.526,1563.48L406.495,1563.33L406.463,1563.19L406.429,1563.05L406.393,1562.9L406.356,1562.76L406.317,1562.62L406.276,1562.48L406.233,1562.34L406.189,1562.2L406.143,1562.06L406.095,1561.92L406.046,1561.79L405.996,1561.65L405.943,1561.52L405.889,1561.38L405.833,1561.25L405.776,1561.12L405.717,1560.98L405.657,1560.85L405.596,1560.72L405.532,1560.59L405.467,1560.47L405.401,1560.34L405.333,1560.21L405.263,1560.08L405.193,1559.96L405.12,1559.84L405.046,1559.71L404.971,1559.59L404.894,1559.47L404.816,1559.35L404.737,1559.23L404.656,1559.11L404.574,1558.99L404.49,1558.88L404.405,1558.76L404.318,1558.65L404.23,1558.54L404.142,1558.42L404.051,1558.31L403.96,1558.2L403.867,1558.1L403.772,1557.99L403.677,1557.88L403.58,1557.78L403.482,1557.67L403.383,1557.57L403.283,1557.47L403.181,1557.37L403.078,1557.27L402.974,1557.17L402.869,1557.07L402.762,1556.98L402.655,1556.88L402.546,1556.79L402.437,1556.7L402.326,1556.61L402.214,1556.52L402.101,1556.43L401.987,1556.35L401.872,1556.26L401.756,1556.18L401.638,1556.09L401.521,1556.01L401.401,1555.93L401.281,1555.86L401.16,1555.78L401.037,1555.7L400.915,1555.63L400.79,1555.56L400.666,1555.49L400.54,1555.42L400.413,1555.35L400.285,1555.28L400.157,1555.22L400.027,1555.15L399.896,1555.09L399.766,1555.03L399.634,1554.97L399.5,1554.92L399.367,1554.86L399.234,1554.81L399.097,1554.75L398.961,1554.7L398.825,1554.65L398.688,1554.61L398.549,1554.56L398.41,1554.52L398.27,1554.47L398.13,1554.43L397.988,1554.39L397.846,1554.36L397.704,1554.32L397.561,1554.29L397.416,1554.25L397.272,1554.22L397.127,1554.19L396.981,1554.17L396.834,1554.14L396.687,1554.12L396.54,1554.1L396.391,1554.08L396.242,1554.06L396.092,1554.04L395.942,1554.03L395.791,1554.02L395.64,1554.01L395.488,1554L395.336,1553.99L395.183,1553.99L395.029,1553.98L394.875,1553.98L394.721,1553.98Z" style="fill:rgb(52,170,220);"/>
                </g>
                <g transform="matrix(-1.83697e-16,0.641487,-1,-1.17839e-16,1962.5,959.344)">
                    <path d="M394.662,1562.29C394.846,1562.01 395.162,1561.84 395.5,1561.84C395.838,1561.84 396.154,1562.01 396.338,1562.29C397.532,1564.13 399.717,1567.49 400.996,1569.45C401.196,1569.76 401.211,1570.15 401.036,1570.48C400.861,1570.8 400.524,1571 400.157,1571C397.684,1571 393.316,1571 390.843,1571C390.476,1571 390.139,1570.8 389.964,1570.48C389.789,1570.15 389.804,1569.76 390.004,1569.45C391.283,1567.49 393.468,1564.13 394.662,1562.29Z" style="fill:rgb(52,170,220);"/>
                </g>
            </g>
        </g>
    </g>
</svg>
